<?xml version="1.0" encoding="utf-8"?>
<!-- Generator: Adobe Illustrator 21.0.2, SVG Export Plug-In . SVG Version: 6.00 Build 0)  -->
<svg version="1.1" id="Layer_2_copy_2" xmlns="http://www.w3.org/2000/svg" xmlns:xlink="http://www.w3.org/1999/xlink" x="0px"
	 y="0px" viewBox="0 0 400 400" style="enable-background:new 0 0 400 400;" xml:space="preserve">
<style type="text/css">
	.st0{fill:#FFFFFF;}
</style>
<g>
	<g>
		<path class="st0" d="M213.1,133.4c-9.6,0-17.4,16.9-17.4,26.5c0,8.3,5.8,15.2,13.5,16.9c-4.4,1.1-7.6,5.1-7.6,9.8l2.5,66.9h18.1
			l2.5-66.9c0-4.7-3.2-8.7-7.6-9.8c7.7-1.8,13.5-8.7,13.5-16.9C230.5,150.3,222.8,133.4,213.1,133.4z"/>
	</g>
	<g>
		<path class="st0" d="M54.5,214.8c-1.7-1.6-3.6-2.9-5.7-3.9c-2.1-1.1-4.3-2-6.5-2.8c-2.2-0.8-4.4-1.5-6.5-2.2c-2.1-0.6-4-1.3-5.7-2
			c-1.7-0.7-3-1.5-4-2.5c-1-0.9-1.5-2.1-1.5-3.6c0-2,0.8-3.5,2.3-4.6c1.6-1.1,3.8-1.7,6.7-1.7c2,0,3.8,0.2,5.4,0.7
			c1.6,0.5,3,1,4.3,1.5c1.3,0.5,2.4,1.1,3.5,1.5c1.1,0.5,2.2,0.7,3.3,0.7c1,0,1.9-0.2,2.6-0.6c0.7-0.4,1.3-1.1,1.9-2l5.2-8.1
			c-1.4-1.4-3.1-2.8-5-4c-1.9-1.2-4-2.3-6.2-3.2c-2.3-0.9-4.7-1.6-7.3-2.1c-2.6-0.5-5.3-0.7-8.1-0.7c-5.1,0-9.6,0.7-13.4,2
			c-3.8,1.3-7,3.1-9.5,5.3c-2.5,2.2-4.4,4.8-5.7,7.8c-1.3,2.9-1.9,6.1-1.9,9.3c0,3.5,0.5,6.5,1.6,9c1,2.5,2.4,4.6,4.1,6.3
			c1.7,1.7,3.6,3.1,5.8,4.2c2.2,1.1,4.3,2.1,6.6,2.9c2.2,0.8,4.4,1.5,6.6,2.1c2.2,0.6,4.1,1.3,5.8,2c1.7,0.7,3,1.6,4.1,2.6
			c1,1,1.6,2.3,1.6,3.8c0,0.8-0.2,1.7-0.5,2.5c-0.3,0.8-0.9,1.5-1.6,2.2c-0.7,0.6-1.7,1.2-3,1.5c-1.2,0.4-2.7,0.6-4.5,0.6
			c-2.5,0-4.6-0.3-6.3-0.9c-1.7-0.6-3.1-1.2-4.3-1.9c-1.2-0.7-2.4-1.3-3.5-1.9c-1.1-0.6-2.3-0.9-3.6-0.9c-1.4,0-2.6,0.3-3.5,0.9
			c-0.9,0.6-1.7,1.4-2.3,2.3L0,245.2c1.5,1.3,3.3,2.6,5.3,3.8c2.1,1.2,4.3,2.2,6.8,3c2.5,0.8,5,1.5,7.6,2c2.6,0.5,5.2,0.7,7.9,0.7
			c5.2,0,9.9-0.6,13.9-1.9c4-1.3,7.4-3.1,10.2-5.4c2.7-2.3,4.8-5.1,6.2-8.3c1.4-3.2,2.1-6.7,2.1-10.5c0-3.1-0.5-5.8-1.5-8
			C57.5,218.3,56.1,216.4,54.5,214.8z"/>
	</g>
	<g>
		<path class="st0" d="M138.3,185.4c-2.5-3.4-5.4-5.9-8.8-7.7c-3.4-1.8-7.1-2.7-11.1-2.7c-2.7,0-5.1,0.3-7.4,0.8
			c-2.3,0.5-4.4,1.3-6.3,2.3c-2,1-3.8,2.1-5.5,3.5c-1.7,1.3-3.3,2.8-4.8,4.5l-1.7-5.6c-0.4-1.3-1.1-2.3-2-2.9c-1-0.6-2.2-1-3.6-1
			H72.7V278h23v-29.6c2.2,1.9,4.7,3.5,7.4,4.6c2.7,1.1,6.1,1.7,10.1,1.7c4.9,0,9.4-1,13.4-3c4-2,7.5-4.9,10.4-8.5
			c2.9-3.6,5.2-7.9,6.8-12.8c1.6-4.9,2.4-10.3,2.4-16c0-6.2-0.7-11.7-2.1-16.6C142.7,192.9,140.7,188.8,138.3,185.4z M114.1,234.8
			c-8,0-14.5-8.9-14.5-19.8c0-10.9,6.5-19.8,14.5-19.8c8,0,14.5,8.9,14.5,19.8C128.6,226,122.1,234.8,114.1,234.8z"/>
	</g>
	<g>
		<path class="st0" d="M162.1,119.1c-1.1-0.9-2.8-0.1-2.8,1.3v133.2h20.6l2.5-92.4C182.3,145,175,129.4,162.1,119.1z"/>
	</g>
	<g>
		<path class="st0" d="M283.5,235.6c-0.4-0.3-1-0.5-1.7-0.5c-0.5,0-0.9,0.1-1.3,0.3c-0.4,0.2-0.8,0.4-1.2,0.6
			c-0.4,0.2-0.9,0.4-1.5,0.6c-0.6,0.2-1.3,0.3-2.1,0.3c-1.6,0-2.9-0.6-3.8-1.7c-0.9-1.2-1.3-2.6-1.3-4.4v-38.3
			c8.9,0,16.2-7.3,16.2-16.2V176l0-17.1c0-2.9-2.3-5.2-5.2-5.2h-0.1c-2.9,0-5.2,2.3-5.2,5.2v14.2c0,1.6-1.3,2.9-2.9,2.9
			c-1.6,0-2.9-1.3-2.9-2.9v-17.3c0-4.7-3.5-8.9-8.2-9.1c-5-0.3-9.1,3.7-9.1,8.6v7.6l-0.1,10.2c0,1.6-1.3,2.8-2.9,2.8h-0.3
			c-1.6,0-2.9-1.3-2.9-2.9v-13.8c0-2.9-2.3-5.2-5.2-5.2c-2.9,0-5.2,2.3-5.2,5.2V176v6c0,5.7,4.6,10.4,10.4,10.4h0.5v39.8
			c0,3.4,0.5,6.5,1.5,9.3c1,2.8,2.4,5.1,4.3,7.1c1.9,2,4.3,3.5,7.1,4.5c2.8,1.1,6,1.6,9.7,1.6c4,0,7.8-0.6,11.5-1.7
			c3.7-1.1,7.1-2.8,10-5l-7-10.9C284.4,236.4,284,235.9,283.5,235.6z"/>
	</g>
	<g>
		<path class="st0" d="M300.6,193.6H334l-32.5,43c-0.9,1.3-1.7,2.6-2.2,4c-0.5,1.4-0.8,2.6-0.8,3.5v9.4h60.9v-17.1H325l32.2-42.5
			c0.8-1,1.5-2.3,2.1-3.7c0.6-1.4,0.9-2.9,0.9-4.5v-9.2h-59.6V193.6z"/>
	</g>
	<g>
		<path class="st0" d="M398.9,150.1c-0.7-1.6-1.8-3.1-3-4.3c-1.3-1.2-2.8-2.2-4.5-2.9c-1.7-0.7-3.5-1-5.5-1c-1.9,0-3.6,0.3-5.3,1
			c-1.6,0.7-3.1,1.7-4.3,2.9c-1.3,1.2-2.3,2.7-3,4.3c-0.7,1.6-1.1,3.4-1.1,5.3c0,1.8,0.4,3.6,1.1,5.2c0.7,1.6,1.7,3,3,4.2
			c1.3,1.2,2.7,2.2,4.3,2.9c1.6,0.7,3.4,1.1,5.3,1.1c1.9,0,3.8-0.4,5.5-1.1c1.7-0.7,3.2-1.7,4.5-2.9c1.3-1.2,2.3-2.6,3-4.2
			c0.7-1.6,1.1-3.3,1.1-5.2C400,153.5,399.6,151.8,398.9,150.1z"/>
	</g>
	<g>
		<rect x="374.3" y="176.5" class="st0" width="23" height="77"/>
	</g>
</g>
</svg>
